<?xml version="1.0" encoding="UTF-8" standalone="no"?>
<!-- Created with Inkscape (http://www.inkscape.org/) -->
<svg
   xmlns:ns0="http://www.iki.fi/pav/software/textext/"
   xmlns:dc="http://purl.org/dc/elements/1.1/"
   xmlns:cc="http://creativecommons.org/ns#"
   xmlns:rdf="http://www.w3.org/1999/02/22-rdf-syntax-ns#"
   xmlns:svg="http://www.w3.org/2000/svg"
   xmlns="http://www.w3.org/2000/svg"
   xmlns:sodipodi="http://sodipodi.sourceforge.net/DTD/sodipodi-0.dtd"
   xmlns:inkscape="http://www.inkscape.org/namespaces/inkscape"
   width="248.03149"
   height="177.16534"
   id="svg2"
   sodipodi:version="0.32"
   inkscape:version="0.46"
   sodipodi:docname="O_Notation.svg"
   version="1.0"
   inkscape:output_extension="org.inkscape.output.svg.inkscape"
   inkscape:export-filename="/home/pau/UPC/PBD/Apunts/sphinx/img/O_Notation.png"
   inkscape:export-xdpi="200"
   inkscape:export-ydpi="200">
  <sodipodi:namedview
     id="base"
     pagecolor="#ffffff"
     bordercolor="#666666"
     borderopacity="1.0"
     gridtolerance="10000"
     guidetolerance="10"
     objecttolerance="10"
     inkscape:pageopacity="0.0"
     inkscape:pageshadow="2"
     inkscape:zoom="5.6568542"
     inkscape:cx="109.31974"
     inkscape:cy="58.65319"
     inkscape:document-units="px"
     inkscape:current-layer="layer1"
     showgrid="false"
     inkscape:window-width="1670"
     inkscape:window-height="995"
     inkscape:window-x="0"
     inkscape:window-y="25"
     units="cm"
     showguides="true"
     inkscape:guide-bbox="true">
    <sodipodi:guide
       orientation="0,1"
       position="16.186116,28.350563"
       id="guide2509" />
  </sodipodi:namedview>
  <defs
     id="defs4">
    <marker
       inkscape:stockid="Arrow2Mend"
       orient="auto"
       refY="0"
       refX="0"
       id="Arrow2Mend"
       style="overflow:visible">
      <path
         id="path3185"
         style="font-size:12px;fill-rule:evenodd;stroke-width:0.625;stroke-linejoin:round"
         d="M 8.7185878,4.0337352 L -2.2072895,0.016013256 L 8.7185884,-4.0017078 C 6.97309,-1.6296469 6.9831476,1.6157441 8.7185878,4.0337352 z"
         transform="scale(-0.6,-0.6)" />
    </marker>
    <marker
       inkscape:stockid="Arrow1Mstart"
       orient="auto"
       refY="0"
       refX="0"
       id="Arrow1Mstart"
       style="overflow:visible">
      <path
         id="path3164"
         d="M 0,0 L 5,-5 L -12.5,0 L 5,5 L 0,0 z"
         style="fill-rule:evenodd;stroke:#000000;stroke-width:1pt;marker-start:none"
         transform="matrix(0.4,0,0,0.4,4,0)" />
    </marker>
    <inkscape:perspective
       sodipodi:type="inkscape:persp3d"
       inkscape:vp_x="0 : 526.18109 : 1"
       inkscape:vp_y="0 : 1000 : 0"
       inkscape:vp_z="744.09448 : 526.18109 : 1"
       inkscape:persp3d-origin="372.04724 : 350.78739 : 1"
       id="perspective10" />
  </defs>
  <metadata
     id="metadata7">
    <rdf:RDF>
      <cc:Work
         rdf:about="">
        <dc:format>image/svg+xml</dc:format>
        <dc:type
           rdf:resource="http://purl.org/dc/dcmitype/StillImage" />
      </cc:Work>
    </rdf:RDF>
  </metadata>
  <g
     inkscape:label="Layer 1"
     inkscape:groupmode="layer"
     id="layer1"
     transform="translate(-1.0101526,-0.7933829)">
    <path
       sodipodi:nodetypes="csscc"
       d="M 191.6249,34.581738 C 191.6249,34.581738 175.92974,38.587657 156.92834,54.039219 C 143.70251,64.794206 124.43725,78.876993 101.40544,85.357031 C 81.270804,91.021945 53.554594,104.77681 18.847444,149.79547 L 191.84747,149.80011"
       style="fill:#dddddd;fill-opacity:1;fill-rule:evenodd;stroke:none;stroke-width:1.29067075;stroke-linecap:round;stroke-linejoin:miter;stroke-miterlimit:4;stroke-dasharray:none;stroke-opacity:1"
       id="path2414" />
    <path
       id="path6019"
       style="fill:none;fill-opacity:1;fill-rule:evenodd;stroke:#868686;stroke-width:1.29067075000000009;stroke-linecap:round;stroke-linejoin:miter;stroke-miterlimit:4;stroke-dasharray:none;stroke-opacity:1"
       d="M 191.86418,34.389794 C 191.86418,34.389794 176.16902,38.395709 157.16762,53.847271 C 143.94179,64.602258 124.67653,78.685045 101.64472,85.165083 C 81.51008,90.829997 53.793867,104.58486 19.086723,149.60352"
       sodipodi:nodetypes="cssc" />
    <path
       style="fill:none;fill-rule:evenodd;stroke:#000000;stroke-width:0.83586299;stroke-linecap:butt;stroke-linejoin:miter;marker-start:url(#Arrow1Mstart);marker-mid:none;marker-end:url(#Arrow2Mend);stroke-miterlimit:4;stroke-dasharray:none;stroke-opacity:1"
       d="M 18.836309,23.420879 L 18.836309,150.20514 L 219.37318,150.20514"
       id="path2383"
       sodipodi:nodetypes="ccc" />
    <path
       sodipodi:nodetypes="cssc"
       id="path6023"
       d="M 19.137396,101.76022 C 49.761853,71.14845 63.748975,61.189913 79.677557,74.6951 C 101.77318,93.42907 122.98262,90.197737 135.95036,86.365823 C 152.96007,81.339525 191.92479,55.133838 191.92479,55.133838"
       style="fill:none;fill-rule:evenodd;stroke:#000000;stroke-width:1.22921026;stroke-linecap:round;stroke-linejoin:miter;stroke-miterlimit:4;stroke-dasharray:none;stroke-opacity:1" />
    <g
       ns0:preamble=""
       ns0:text="$f(n)$"
       word-spacing="normal"
       letter-spacing="normal"
       font-size-adjust="none"
       font-stretch="normal"
       font-weight="normal"
       font-variant="normal"
       font-style="normal"
       fill-rule="even-odd"
       stroke-miterlimit="10.433"
       xml:space="preserve"
       transform="matrix(1.5791261,0,0,-1.5791261,-154.1601,1175.8575)"
       id="content"
       style="font-style:normal;font-variant:normal;font-weight:normal;font-stretch:normal;letter-spacing:normal;word-spacing:normal;text-anchor:start;fill:none;fill-opacity:1;stroke:#000000;stroke-linecap:butt;stroke-linejoin:miter;stroke-miterlimit:10.43299961;stroke-dasharray:none;stroke-dashoffset:0;stroke-opacity:1">
<path
   id="path6080"
   d="M 227.09,711.11 L 227.95,711.11 C 228.15,711.11 228.24,711.11 228.24,711.31 C 228.24,711.42 228.15,711.42 227.98,711.42 L 227.15,711.42 C 227.26,711.99 227.25,711.97 227.36,712.55 C 227.4,712.76 227.54,713.47 227.6,713.59 C 227.69,713.78 227.86,713.93 228.07,713.93 C 228.1,713.93 228.36,713.93 228.55,713.75 C 228.12,713.71 228.01,713.36 228.01,713.21 C 228.01,712.98 228.2,712.86 228.38,712.86 C 228.64,712.86 228.93,713.08 228.93,713.46 C 228.93,713.92 228.47,714.15 228.07,714.15 C 227.73,714.15 227.1,713.97 226.8,712.98 C 226.74,712.77 226.71,712.67 226.47,711.42 L 225.78,711.42 C 225.59,711.42 225.49,711.42 225.49,711.23 C 225.49,711.11 225.57,711.11 225.76,711.11 L 226.42,711.11 L 225.67,707.17 C 225.49,706.21 225.32,705.3 224.81,705.3 C 224.77,705.3 224.52,705.3 224.33,705.48 C 224.79,705.51 224.88,705.87 224.88,706.02 C 224.88,706.25 224.7,706.36 224.51,706.36 C 224.25,706.36 223.96,706.15 223.96,705.77 C 223.96,705.32 224.4,705.08 224.81,705.08 C 225.35,705.08 225.75,705.67 225.93,706.05 C 226.25,706.67 226.48,707.88 226.49,707.95 L 227.09,711.11 z"
   style="fill:#000000;stroke-width:0" />
<path
   id="path6082"
   d="M 232.68,704.73 L 232.68,704.74 L 232.68,704.74 L 232.68,704.75 L 232.68,704.75 L 232.68,704.75 L 232.68,704.75 L 232.67,704.76 L 232.67,704.76 L 232.67,704.77 L 232.67,704.77 L 232.67,704.77 L 232.66,704.78 L 232.66,704.78 L 232.66,704.79 L 232.65,704.79 L 232.65,704.8 L 232.64,704.81 L 232.64,704.81 L 232.63,704.82 L 232.63,704.82 L 232.63,704.83 L 232.62,704.83 L 232.62,704.84 L 232.61,704.84 L 232.61,704.84 L 232.61,704.85 L 232.6,704.85 L 232.6,704.86 L 232.59,704.86 L 232.59,704.87 L 232.58,704.88 L 232.58,704.88 L 232.57,704.89 L 232.56,704.89 L 232.56,704.9 L 232.55,704.91 L 232.54,704.91 L 232.54,704.92 L 232.53,704.93 L 232.52,704.94 L 232.52,704.94 L 232.51,704.95 C 231.26,706.21 230.94,708.09 230.94,709.61 C 230.94,711.35 231.32,713.08 232.55,714.33 C 232.68,714.45 232.68,714.47 232.68,714.49 C 232.68,714.57 232.64,714.59 232.58,714.59 C 232.48,714.59 231.58,713.92 230.99,712.65 C 230.49,711.56 230.37,710.45 230.37,709.61 C 230.37,708.84 230.48,707.63 231.02,706.51 C 231.62,705.28 232.48,704.63 232.58,704.63 C 232.64,704.63 232.68,704.66 232.68,704.73 z"
   style="fill:#000000;stroke-width:0" />
<path
   id="path6084"
   d="M 234.13,707.71 L 234.13,707.7 L 234.13,707.68 L 234.12,707.67 L 234.12,707.65 L 234.11,707.62 L 234.11,707.59 L 234.1,707.55 L 234.09,707.52 L 234.09,707.49 L 234.08,707.46 L 234.07,707.44 L 234.07,707.43 L 234.07,707.41 L 234.07,707.4 L 234.06,707.39 L 234.06,707.37 L 234.06,707.36 L 234.05,707.35 L 234.05,707.34 L 234.05,707.33 L 234.05,707.32 L 234.05,707.31 L 234.05,707.3 L 234.05,707.29 L 234.05,707.29 L 234.04,707.28 C 234.04,707.1 234.18,707.01 234.33,707.01 C 234.45,707.01 234.63,707.09 234.7,707.29 C 234.71,707.31 234.83,707.78 234.89,708.03 C 234.96,708.33 235.04,708.63 235.11,708.93 C 235.17,709.15 235.23,709.36 235.28,709.59 C 235.32,709.76 235.4,710.05 235.41,710.09 C 235.56,710.4 236.09,711.31 237.03,711.31 C 237.48,711.31 237.57,710.94 237.57,710.61 C 237.57,709.99 237.08,708.72 236.92,708.29 C 236.83,708.06 236.82,707.94 236.82,707.83 C 236.82,707.36 237.17,707.01 237.64,707.01 C 238.58,707.01 238.95,708.47 238.95,708.55 C 238.95,708.65 238.86,708.65 238.83,708.65 C 238.73,708.65 238.73,708.62 238.68,708.47 C 238.48,707.79 238.15,707.23 237.66,707.23 C 237.49,707.23 237.42,707.33 237.42,707.56 C 237.42,707.81 237.51,708.05 237.6,708.27 C 237.79,708.8 238.21,709.89 238.21,710.46 C 238.21,711.13 237.78,711.53 237.06,711.53 C 236.17,711.53 235.68,710.89 235.51,710.66 C 235.46,711.22 235.05,711.53 234.59,711.53 C 234.13,711.53 233.95,711.14 233.85,710.96 C 233.69,710.62 233.55,710.03 233.55,709.99 C 233.55,709.89 233.65,709.89 233.67,709.89 C 233.77,709.89 233.78,709.9 233.84,710.12 C 234.01,710.83 234.2,711.31 234.56,711.31 C 234.76,711.31 234.87,711.18 234.87,710.85 C 234.87,710.64 234.84,710.53 234.71,710.01 L 234.13,707.71 z"
   style="fill:#000000;stroke-width:0" />
<path
   id="path6086"
   d="M 242.11,709.61 L 242.11,709.69 L 242.11,709.76 L 242.11,709.84 L 242.11,709.92 L 242.1,710.09 L 242.09,710.27 L 242.07,710.45 L 242.05,710.64 L 242.02,710.84 L 241.99,711.04 L 241.95,711.24 L 241.91,711.45 L 241.85,711.66 L 241.79,711.87 L 241.72,712.08 L 241.64,712.3 L 241.6,712.4 L 241.55,712.51 L 241.51,712.62 L 241.46,712.72 C 240.86,713.95 240,714.59 239.9,714.59 C 239.84,714.59 239.8,714.55 239.8,714.49 C 239.8,714.47 239.8,714.45 239.99,714.27 C 240.97,713.28 241.54,711.7 241.54,709.61 C 241.54,707.91 241.17,706.16 239.93,704.9 C 239.8,704.78 239.8,704.76 239.8,704.73 C 239.8,704.67 239.84,704.63 239.9,704.63 C 240,704.63 240.9,705.31 241.49,706.58 C 241.99,707.67 242.11,708.78 242.11,709.61 z"
   style="fill:#000000;stroke-width:0" />
</g>    <path
       style="fill:none;fill-rule:evenodd;stroke:#000000;stroke-width:0.49168411;stroke-linecap:butt;stroke-linejoin:miter;stroke-miterlimit:4;stroke-dasharray:0.4916841, 1.4750523;stroke-dashoffset:0;stroke-opacity:1"
       d="M 99.8499,22.718473 L 99.8499,150.20513"
       id="path6257"
       sodipodi:nodetypes="cc" />
    <g
       id="g6307"
       transform="matrix(1.315525,0,0,-1.315525,-200.15833,1091.4621)"
       xml:space="preserve"
       stroke-miterlimit="10.433"
       fill-rule="even-odd"
       font-style="normal"
       font-variant="normal"
       font-weight="normal"
       font-stretch="normal"
       font-size-adjust="none"
       letter-spacing="normal"
       word-spacing="normal"
       ns0:text="$n_0$"
       ns0:preamble=""
       style="font-style:normal;font-variant:normal;font-weight:normal;font-stretch:normal;letter-spacing:normal;word-spacing:normal;text-anchor:start;fill:none;fill-opacity:1;stroke:#000000;stroke-linecap:butt;stroke-linejoin:miter;stroke-miterlimit:10.43299961;stroke-dasharray:none;stroke-dashoffset:0;stroke-opacity:1">
<path
   style="fill:#000000;stroke-width:0"
   d="M 224.31,707.71 L 224.31,707.7 L 224.3,707.68 L 224.3,707.67 L 224.3,707.65 L 224.29,707.62 L 224.28,707.59 L 224.28,707.55 L 224.27,707.52 L 224.26,707.49 L 224.25,707.46 L 224.25,707.44 L 224.25,707.43 L 224.24,707.41 L 224.24,707.4 L 224.24,707.39 L 224.23,707.37 L 224.23,707.36 L 224.23,707.35 L 224.23,707.34 L 224.23,707.33 L 224.22,707.32 L 224.22,707.31 L 224.22,707.3 L 224.22,707.29 L 224.22,707.29 L 224.22,707.28 C 224.22,707.1 224.36,707.01 224.51,707.01 C 224.63,707.01 224.81,707.09 224.88,707.29 C 224.89,707.31 225.01,707.78 225.07,708.03 C 225.14,708.33 225.22,708.63 225.29,708.93 C 225.35,709.15 225.4,709.36 225.46,709.59 C 225.49,709.76 225.57,710.05 225.58,710.09 C 225.73,710.4 226.26,711.31 227.21,711.31 C 227.66,711.31 227.75,710.94 227.75,710.61 C 227.75,709.99 227.26,708.72 227.1,708.29 C 227.01,708.06 227,707.94 227,707.83 C 227,707.36 227.35,707.01 227.82,707.01 C 228.75,707.01 229.12,708.47 229.12,708.55 C 229.12,708.65 229.03,708.65 229,708.65 C 228.9,708.65 228.9,708.62 228.85,708.47 C 228.65,707.79 228.32,707.23 227.84,707.23 C 227.67,707.23 227.6,707.33 227.6,707.56 C 227.6,707.81 227.69,708.05 227.78,708.27 C 227.96,708.8 228.38,709.89 228.38,710.46 C 228.38,711.13 227.96,711.53 227.24,711.53 C 226.34,711.53 225.85,710.89 225.68,710.66 C 225.63,711.22 225.23,711.53 224.77,711.53 C 224.31,711.53 224.12,711.14 224.02,710.96 C 223.86,710.62 223.72,710.03 223.72,709.99 C 223.72,709.89 223.82,709.89 223.84,709.89 C 223.94,709.89 223.95,709.9 224.01,710.12 C 224.18,710.83 224.38,711.31 224.74,711.31 C 224.94,711.31 225.05,711.18 225.05,710.85 C 225.05,710.64 225.02,710.53 224.89,710.01 L 224.31,707.71 z"
   id="path6309" />
<path
   style="fill:#000000;stroke-width:0"
   d="M 233.01,707.85 L 233.01,708 L 233,708.13 L 233,708.26 L 232.99,708.39 L 232.98,708.52 L 232.96,708.63 L 232.94,708.75 L 232.92,708.86 L 232.9,708.97 L 232.87,709.08 L 232.83,709.18 L 232.8,709.28 L 232.75,709.38 L 232.71,709.47 L 232.65,709.57 L 232.63,709.62 L 232.6,709.66 C 232.38,709.98 231.95,710.26 231.39,710.26 C 229.77,710.26 229.77,708.36 229.77,707.85 C 229.77,707.35 229.77,705.49 231.39,705.49 L 231.39,705.69 C 231.07,705.69 230.64,705.87 230.51,706.45 C 230.41,706.86 230.41,707.43 230.41,707.95 C 230.41,708.45 230.41,708.98 230.51,709.37 C 230.66,709.92 231.1,710.07 231.39,710.07 C 231.77,710.07 232.13,709.84 232.26,709.43 C 232.37,709.05 232.37,708.55 232.37,707.95 C 232.37,707.43 232.37,706.91 232.28,706.47 C 232.14,705.84 231.67,705.69 231.39,705.69 L 231.39,705.69 L 231.39,705.49 C 233.01,705.49 233.01,707.35 233.01,707.85 z"
   id="path6311" />
</g>    <g
       style="font-style:normal;font-variant:normal;font-weight:normal;font-stretch:normal;letter-spacing:normal;word-spacing:normal;text-anchor:start;fill:none;fill-opacity:1;stroke:#000000;stroke-linecap:butt;stroke-linejoin:miter;stroke-miterlimit:10.43299961;stroke-dasharray:none;stroke-dashoffset:0;stroke-opacity:1"
       ns0:preamble=""
       ns0:text="$n$"
       word-spacing="normal"
       letter-spacing="normal"
       font-size-adjust="none"
       font-stretch="normal"
       font-weight="normal"
       font-variant="normal"
       font-style="normal"
       fill-rule="even-odd"
       stroke-miterlimit="10.433"
       xml:space="preserve"
       transform="matrix(1.315525,0,0,-1.315525,-69.045357,1083.0332)"
       id="g6391">
<path
   id="path6393"
   d="M 224.31,707.71 L 224.31,707.7 L 224.3,707.68 L 224.3,707.67 L 224.3,707.65 L 224.29,707.62 L 224.28,707.59 L 224.28,707.55 L 224.27,707.52 L 224.26,707.49 L 224.25,707.46 L 224.25,707.44 L 224.25,707.43 L 224.24,707.41 L 224.24,707.4 L 224.24,707.39 L 224.23,707.37 L 224.23,707.36 L 224.23,707.35 L 224.23,707.34 L 224.23,707.33 L 224.22,707.32 L 224.22,707.31 L 224.22,707.3 L 224.22,707.29 L 224.22,707.29 L 224.22,707.28 C 224.22,707.1 224.36,707.01 224.51,707.01 C 224.63,707.01 224.81,707.09 224.88,707.29 C 224.89,707.31 225.01,707.78 225.07,708.03 C 225.14,708.33 225.22,708.63 225.29,708.93 C 225.35,709.15 225.4,709.36 225.46,709.59 C 225.49,709.76 225.57,710.05 225.58,710.09 C 225.73,710.4 226.26,711.31 227.21,711.31 C 227.66,711.31 227.75,710.94 227.75,710.61 C 227.75,709.99 227.26,708.72 227.1,708.29 C 227.01,708.06 227,707.94 227,707.83 C 227,707.36 227.35,707.01 227.82,707.01 C 228.75,707.01 229.12,708.47 229.12,708.55 C 229.12,708.65 229.03,708.65 229,708.65 C 228.9,708.65 228.9,708.62 228.85,708.47 C 228.65,707.79 228.32,707.23 227.84,707.23 C 227.67,707.23 227.6,707.33 227.6,707.56 C 227.6,707.81 227.69,708.05 227.78,708.27 C 227.96,708.8 228.38,709.89 228.38,710.46 C 228.38,711.13 227.96,711.53 227.24,711.53 C 226.34,711.53 225.85,710.89 225.68,710.66 C 225.63,711.22 225.23,711.53 224.77,711.53 C 224.31,711.53 224.12,711.14 224.02,710.96 C 223.86,710.62 223.72,710.03 223.72,709.99 C 223.72,709.89 223.82,709.89 223.84,709.89 C 223.94,709.89 223.95,709.9 224.01,710.12 C 224.18,710.83 224.38,711.31 224.74,711.31 C 224.94,711.31 225.05,711.18 225.05,710.85 C 225.05,710.64 225.02,710.53 224.89,710.01 L 224.31,707.71 z"
   style="fill:#000000;stroke-width:0" />
</g>    <g
       style="font-style:normal;font-variant:normal;font-weight:normal;font-stretch:normal;letter-spacing:normal;word-spacing:normal;text-anchor:start;fill:none;fill-opacity:1;stroke:#000000;stroke-linecap:butt;stroke-linejoin:miter;stroke-miterlimit:10.43299961;stroke-dasharray:none;stroke-dashoffset:0;stroke-opacity:1"
       ns0:preamble=""
       ns0:text="$c\\ g(n)$"
       text-anchor="start"
       word-spacing="normal"
       letter-spacing="normal"
       font-size-adjust="none"
       font-stretch="normal"
       font-weight="normal"
       font-variant="normal"
       font-style="normal"
       fill-opacity="1"
       fill-rule="even-odd"
       fill="none"
       stroke-opacity="1"
       stroke-dashoffset="0"
       stroke-dasharray="none"
       stroke-miterlimit="10.433"
       stroke-linejoin="miter"
       stroke-linecap="butt"
       stroke="black"
       xml:space="preserve"
       transform="matrix(1.315525,0,0,-1.315525,-97.639028,956.6969)"
       id="g2623">
<path
   id="path2625"
   fill="black"
   stroke-width="0"
   d="M227.38,710.91 L227.35,710.91 L227.32,710.91 L227.29,710.91 L227.26,710.91 L227.23,710.9 L227.21,710.9 L227.19,710.9 L227.18,710.9 L227.16,710.89 L227.15,710.89 L227.14,710.89 L227.12,710.88 L227.11,710.88 L227.1,710.87 L227.08,710.87 L227.07,710.86 L227.06,710.86 L227.04,710.85 L227.03,710.84 L227.02,710.83 L227,710.82 L226.99,710.81 L226.98,710.8 L226.97,710.79 L226.95,710.78 L226.94,710.77 C226.78,710.62,226.76,710.45,226.76,710.38 C226.76,710.14,226.94,710.03,227.13,710.03 C227.42,710.03,227.69,710.27,227.69,710.67 C227.69,711.16,227.22,711.53,226.51,711.53 C225.17,711.53,223.84,710.1,223.84,708.7 C223.84,707.8,224.42,707.01,225.46,707.01 C226.88,707.01,227.72,708.07,227.72,708.19 C227.72,708.25,227.66,708.32,227.6,708.32 C227.55,708.32,227.53,708.3,227.47,708.22 C226.68,707.23,225.59,707.23,225.48,707.23 C224.85,707.23,224.58,707.72,224.58,708.32 C224.58,708.73,224.78,709.69,225.12,710.31 C225.43,710.88,225.97,711.31,226.52,711.31 C226.86,711.31,227.24,711.18,227.38,710.91 Z " />
<path
   id="path2627"
   fill="black"
   stroke-width="0"
   d="M235.75,710.88 L235.75,710.89 L235.76,710.9 L235.76,710.91 L235.76,710.92 L235.77,710.94 L235.77,710.95 L235.77,710.96 L235.77,710.98 L235.78,710.99 L235.78,711 L235.78,711.01 L235.78,711.02 L235.78,711.03 L235.78,711.04 L235.78,711.05 L235.78,711.05 L235.78,711.06 C235.78,711.23,235.66,711.33,235.49,711.33 C235.39,711.33,235.12,711.26,235.09,710.9 C234.91,711.27,234.56,711.53,234.16,711.53 L234.17,711.31 C234.83,711.31,234.96,710.5,234.96,710.45 C234.96,710.4,234.95,710.34,234.93,710.3 L234.46,708.4 C234.4,708.14,234.17,707.89,233.95,707.7 C233.74,707.52,233.43,707.34,233.14,707.34 C232.64,707.34,232.49,707.86,232.49,708.26 C232.49,708.74,232.78,709.91,233.05,710.42 C233.32,710.91,233.75,711.31,234.17,711.31 L234.16,711.53 C233.02,711.53,231.79,710.13,231.79,708.7 C231.79,707.71,232.4,707.12,233.11,707.12 C233.7,707.12,234.17,707.59,234.27,707.7 L234.28,707.69 C234.07,706.8,233.95,706.4,233.95,706.38 C233.91,706.29,233.57,705.3,232.51,705.3 C232.32,705.3,232,705.31,231.72,705.4 C232.02,705.49,232.13,705.75,232.13,705.92 C232.13,706.08,232.02,706.27,231.75,706.27 C231.53,706.27,231.21,706.09,231.21,705.69 C231.21,705.28,231.58,705.08,232.53,705.08 C233.78,705.08,234.5,705.86,234.65,706.46 Z " />
<path
   id="path2629"
   fill="black"
   stroke-width="0"
   d="M239.47,704.73 L239.47,704.74 L239.47,704.74 L239.47,704.75 L239.47,704.75 L239.47,704.75 L239.47,704.75 L239.47,704.76 L239.47,704.76 L239.47,704.77 L239.46,704.77 L239.46,704.77 L239.46,704.78 L239.46,704.78 L239.45,704.79 L239.45,704.79 L239.44,704.8 L239.44,704.81 L239.43,704.81 L239.43,704.82 L239.42,704.82 L239.42,704.83 L239.42,704.83 L239.41,704.84 L239.41,704.84 L239.41,704.84 L239.4,704.85 L239.4,704.85 L239.39,704.86 L239.39,704.86 L239.38,704.87 L239.38,704.88 L239.37,704.88 L239.37,704.89 L239.36,704.89 L239.35,704.9 L239.35,704.91 L239.34,704.91 L239.33,704.92 L239.33,704.93 L239.32,704.94 L239.31,704.94 L239.3,704.95 C238.06,706.21,237.74,708.09,237.74,709.61 C237.74,711.35,238.12,713.08,239.34,714.33 C239.47,714.45,239.47,714.47,239.47,714.49 C239.47,714.57,239.43,714.59,239.37,714.59 C239.27,714.59,238.38,713.92,237.79,712.65 C237.28,711.56,237.16,710.45,237.16,709.61 C237.16,708.84,237.27,707.63,237.82,706.51 C238.42,705.28,239.27,704.63,239.37,704.63 C239.43,704.63,239.47,704.66,239.47,704.73 Z " />
<path
   id="path2631"
   fill="black"
   stroke-width="0"
   d="M240.92,707.71 L240.92,707.7 L240.92,707.68 L240.91,707.67 L240.91,707.65 L240.9,707.62 L240.9,707.59 L240.89,707.55 L240.88,707.52 L240.87,707.49 L240.87,707.46 L240.86,707.44 L240.86,707.43 L240.86,707.41 L240.85,707.4 L240.85,707.39 L240.85,707.37 L240.84,707.36 L240.84,707.35 L240.84,707.34 L240.84,707.33 L240.84,707.32 L240.83,707.31 L240.83,707.3 L240.83,707.29 L240.83,707.29 L240.83,707.28 C240.83,707.1,240.97,707.01,241.12,707.01 C241.24,707.01,241.42,707.09,241.49,707.29 C241.5,707.31,241.62,707.78,241.68,708.03 C241.75,708.33,241.83,708.63,241.9,708.93 C241.96,709.15,242.02,709.36,242.07,709.59 C242.11,709.76,242.19,710.05,242.2,710.09 C242.35,710.4,242.87,711.31,243.82,711.31 C244.27,711.31,244.36,710.94,244.36,710.61 C244.36,709.99,243.87,708.72,243.71,708.29 C243.62,708.06,243.61,707.94,243.61,707.83 C243.61,707.36,243.96,707.01,244.43,707.01 C245.37,707.01,245.73,708.47,245.73,708.55 C245.73,708.65,245.64,708.65,245.61,708.65 C245.51,708.65,245.51,708.62,245.46,708.47 C245.26,707.79,244.94,707.23,244.45,707.23 C244.28,707.23,244.21,707.33,244.21,707.56 C244.21,707.81,244.3,708.05,244.39,708.27 C244.58,708.8,245,709.89,245,710.46 C245,711.13,244.57,711.53,243.85,711.53 C242.95,711.53,242.47,710.89,242.3,710.66 C242.25,711.22,241.84,711.53,241.38,711.53 C240.92,711.53,240.73,711.14,240.63,710.96 C240.47,710.62,240.33,710.03,240.33,709.99 C240.33,709.89,240.43,709.89,240.45,709.89 C240.55,709.89,240.56,709.9,240.62,710.12 C240.79,710.83,240.99,711.31,241.35,711.31 C241.55,711.31,241.66,711.18,241.66,710.85 C241.66,710.64,241.63,710.53,241.5,710.01 Z " />
<path
   id="path2633"
   fill="black"
   stroke-width="0"
   d="M248.91,709.61 L248.91,709.69 L248.91,709.76 L248.91,709.84 L248.9,709.92 L248.9,710.09 L248.88,710.27 L248.87,710.45 L248.85,710.64 L248.82,710.84 L248.79,711.04 L248.75,711.24 L248.7,711.45 L248.65,711.66 L248.59,711.87 L248.52,712.08 L248.44,712.3 L248.39,712.4 L248.35,712.51 L248.3,712.62 L248.25,712.72 C247.65,713.95,246.8,714.59,246.7,714.59 C246.64,714.59,246.6,714.55,246.6,714.49 C246.6,714.47,246.6,714.45,246.79,714.27 C247.76,713.28,248.33,711.7,248.33,709.61 C248.33,707.91,247.96,706.16,246.73,704.9 C246.6,704.78,246.6,704.76,246.6,704.73 C246.6,704.67,246.64,704.63,246.7,704.63 C246.8,704.63,247.69,705.31,248.28,706.58 C248.79,707.67,248.91,708.78,248.91,709.61 Z " />
</g>  </g>
</svg>
