<?xml version="1.0" encoding="UTF-8" standalone="no"?>
<!-- Created with Inkscape (http://www.inkscape.org/) -->
<svg
   xmlns:ns0="http://www.iki.fi/pav/software/textext/"
   xmlns:dc="http://purl.org/dc/elements/1.1/"
   xmlns:cc="http://creativecommons.org/ns#"
   xmlns:rdf="http://www.w3.org/1999/02/22-rdf-syntax-ns#"
   xmlns:svg="http://www.w3.org/2000/svg"
   xmlns="http://www.w3.org/2000/svg"
   xmlns:sodipodi="http://sodipodi.sourceforge.net/DTD/sodipodi-0.dtd"
   xmlns:inkscape="http://www.inkscape.org/namespaces/inkscape"
   width="248.03149"
   height="177.16534"
   id="svg2"
   sodipodi:version="0.32"
   inkscape:version="0.46"
   sodipodi:docname="Theta_Notation.svg"
   version="1.0"
   inkscape:output_extension="org.inkscape.output.svg.inkscape"
   inkscape:export-filename="/home/pau/UPC/PBD/Apunts/sphinx/img/Theta_Notation.png"
   inkscape:export-xdpi="200"
   inkscape:export-ydpi="200">
  <sodipodi:namedview
     id="base"
     pagecolor="#ffffff"
     bordercolor="#666666"
     borderopacity="1.0"
     gridtolerance="10000"
     guidetolerance="10"
     objecttolerance="10"
     inkscape:pageopacity="0.0"
     inkscape:pageshadow="2"
     inkscape:zoom="2"
     inkscape:cx="196.62781"
     inkscape:cy="41.025683"
     inkscape:document-units="px"
     inkscape:current-layer="layer1"
     showgrid="false"
     inkscape:window-width="1670"
     inkscape:window-height="995"
     inkscape:window-x="0"
     inkscape:window-y="25"
     units="cm" />
  <defs
     id="defs4">
    <marker
       inkscape:stockid="Arrow2Mend"
       orient="auto"
       refY="0"
       refX="0"
       id="Arrow2Mend"
       style="overflow:visible">
      <path
         id="path3185"
         style="font-size:12px;fill-rule:evenodd;stroke-width:0.625;stroke-linejoin:round"
         d="M 8.7185878,4.0337352 L -2.2072895,0.016013256 L 8.7185884,-4.0017078 C 6.97309,-1.6296469 6.9831476,1.6157441 8.7185878,4.0337352 z"
         transform="scale(-0.6,-0.6)" />
    </marker>
    <marker
       inkscape:stockid="Arrow1Mstart"
       orient="auto"
       refY="0"
       refX="0"
       id="Arrow1Mstart"
       style="overflow:visible">
      <path
         id="path3164"
         d="M 0,0 L 5,-5 L -12.5,0 L 5,5 L 0,0 z"
         style="fill-rule:evenodd;stroke:#000000;stroke-width:1pt;marker-start:none"
         transform="matrix(0.4,0,0,0.4,4,0)" />
    </marker>
    <inkscape:perspective
       sodipodi:type="inkscape:persp3d"
       inkscape:vp_x="0 : 526.18109 : 1"
       inkscape:vp_y="0 : 1000 : 0"
       inkscape:vp_z="744.09448 : 526.18109 : 1"
       inkscape:persp3d-origin="372.04724 : 350.78739 : 1"
       id="perspective10" />
  </defs>
  <metadata
     id="metadata7">
    <rdf:RDF>
      <cc:Work
         rdf:about="">
        <dc:format>image/svg+xml</dc:format>
        <dc:type
           rdf:resource="http://purl.org/dc/dcmitype/StillImage" />
      </cc:Work>
    </rdf:RDF>
  </metadata>
  <g
     inkscape:label="Layer 1"
     inkscape:groupmode="layer"
     id="layer1"
     transform="translate(-1.0101526,-0.7933829)">
    <g
       id="g6433"
       transform="matrix(0.4916841,0,0,0.4916841,-47.89225,-14.616875)">
      <path
         sodipodi:nodetypes="csscssc"
         d="M 487.62291,82.383525 C 487.62291,82.383525 451.48936,94.71307 406.88701,123.48202 C 367.70369,148.75564 341.82268,186.70915 304.13221,202.93916 C 265.06045,219.76395 184.4398,220.06353 136.22359,333.99574 C 184.11086,275.03079 264.93935,274.87485 304.11183,266.11645 C 341.89947,257.66768 367.8472,237.91042 407.13153,224.75387 C 451.84887,209.77776 488.07557,203.35943 488.07557,203.35943"
         style="fill:#dddddd;fill-opacity:1;fill-rule:evenodd;stroke:#868686;stroke-width:2.625;stroke-linecap:round;stroke-linejoin:miter;stroke-miterlimit:4;stroke-dasharray:none;stroke-opacity:1"
         id="path6019" />
      <path
         sodipodi:nodetypes="ccc"
         id="path2383"
         d="M 135.71429,77.362181 L 135.71429,335.21933 L 543.57143,335.21933"
         style="fill:none;fill-rule:evenodd;stroke:#000000;stroke-width:1.70000005;stroke-linecap:butt;stroke-linejoin:miter;marker-start:url(#Arrow1Mstart);marker-mid:none;marker-end:url(#Arrow2Mend);stroke-miterlimit:4;stroke-dasharray:none;stroke-opacity:1" />
      <path
         style="fill:none;fill-rule:evenodd;stroke:#000000;stroke-width:2.5;stroke-linecap:round;stroke-linejoin:miter;stroke-miterlimit:4;stroke-dasharray:none;stroke-opacity:1"
         d="M 136.32665,278.89268 C 191.49308,211.04064 235.74176,234.38625 295.55523,223.84693 C 334.60507,216.96622 367.74277,194.43306 406.9536,175.38232 C 451.58726,153.69687 487.74618,144.40311 487.74618,144.40311"
         id="path6023"
         sodipodi:nodetypes="cssc" />
      <g
         style="font-style:normal;font-variant:normal;font-weight:normal;font-stretch:normal;letter-spacing:normal;word-spacing:normal;text-anchor:start;fill:none;fill-opacity:1;stroke:#000000;stroke-linecap:butt;stroke-linejoin:miter;stroke-miterlimit:10.43299961;stroke-dasharray:none;stroke-dashoffset:0;stroke-opacity:1"
         id="content"
         transform="matrix(3.211668,0,0,-3.211668,-216.13034,2421.2179)"
         xml:space="preserve"
         stroke-miterlimit="10.433"
         fill-rule="even-odd"
         font-style="normal"
         font-variant="normal"
         font-weight="normal"
         font-stretch="normal"
         font-size-adjust="none"
         letter-spacing="normal"
         word-spacing="normal"
         ns0:text="$f(n)$"
         ns0:preamble="">
<path
   style="fill:#000000;stroke-width:0"
   d="M 227.09,711.11 L 227.95,711.11 C 228.15,711.11 228.24,711.11 228.24,711.31 C 228.24,711.42 228.15,711.42 227.98,711.42 L 227.15,711.42 C 227.26,711.99 227.25,711.97 227.36,712.55 C 227.4,712.76 227.54,713.47 227.6,713.59 C 227.69,713.78 227.86,713.93 228.07,713.93 C 228.1,713.93 228.36,713.93 228.55,713.75 C 228.12,713.71 228.01,713.36 228.01,713.21 C 228.01,712.98 228.2,712.86 228.38,712.86 C 228.64,712.86 228.93,713.08 228.93,713.46 C 228.93,713.92 228.47,714.15 228.07,714.15 C 227.73,714.15 227.1,713.97 226.8,712.98 C 226.74,712.77 226.71,712.67 226.47,711.42 L 225.78,711.42 C 225.59,711.42 225.49,711.42 225.49,711.23 C 225.49,711.11 225.57,711.11 225.76,711.11 L 226.42,711.11 L 225.67,707.17 C 225.49,706.21 225.32,705.3 224.81,705.3 C 224.77,705.3 224.52,705.3 224.33,705.48 C 224.79,705.51 224.88,705.87 224.88,706.02 C 224.88,706.25 224.7,706.36 224.51,706.36 C 224.25,706.36 223.96,706.15 223.96,705.77 C 223.96,705.32 224.4,705.08 224.81,705.08 C 225.35,705.08 225.75,705.67 225.93,706.05 C 226.25,706.67 226.48,707.88 226.49,707.95 L 227.09,711.11 z"
   id="path6080" />
<path
   style="fill:#000000;stroke-width:0"
   d="M 232.68,704.73 L 232.68,704.74 L 232.68,704.74 L 232.68,704.75 L 232.68,704.75 L 232.68,704.75 L 232.68,704.75 L 232.67,704.76 L 232.67,704.76 L 232.67,704.77 L 232.67,704.77 L 232.67,704.77 L 232.66,704.78 L 232.66,704.78 L 232.66,704.79 L 232.65,704.79 L 232.65,704.8 L 232.64,704.81 L 232.64,704.81 L 232.63,704.82 L 232.63,704.82 L 232.63,704.83 L 232.62,704.83 L 232.62,704.84 L 232.61,704.84 L 232.61,704.84 L 232.61,704.85 L 232.6,704.85 L 232.6,704.86 L 232.59,704.86 L 232.59,704.87 L 232.58,704.88 L 232.58,704.88 L 232.57,704.89 L 232.56,704.89 L 232.56,704.9 L 232.55,704.91 L 232.54,704.91 L 232.54,704.92 L 232.53,704.93 L 232.52,704.94 L 232.52,704.94 L 232.51,704.95 C 231.26,706.21 230.94,708.09 230.94,709.61 C 230.94,711.35 231.32,713.08 232.55,714.33 C 232.68,714.45 232.68,714.47 232.68,714.49 C 232.68,714.57 232.64,714.59 232.58,714.59 C 232.48,714.59 231.58,713.92 230.99,712.65 C 230.49,711.56 230.37,710.45 230.37,709.61 C 230.37,708.84 230.48,707.63 231.02,706.51 C 231.62,705.28 232.48,704.63 232.58,704.63 C 232.64,704.63 232.68,704.66 232.68,704.73 z"
   id="path6082" />
<path
   style="fill:#000000;stroke-width:0"
   d="M 234.13,707.71 L 234.13,707.7 L 234.13,707.68 L 234.12,707.67 L 234.12,707.65 L 234.11,707.62 L 234.11,707.59 L 234.1,707.55 L 234.09,707.52 L 234.09,707.49 L 234.08,707.46 L 234.07,707.44 L 234.07,707.43 L 234.07,707.41 L 234.07,707.4 L 234.06,707.39 L 234.06,707.37 L 234.06,707.36 L 234.05,707.35 L 234.05,707.34 L 234.05,707.33 L 234.05,707.32 L 234.05,707.31 L 234.05,707.3 L 234.05,707.29 L 234.05,707.29 L 234.04,707.28 C 234.04,707.1 234.18,707.01 234.33,707.01 C 234.45,707.01 234.63,707.09 234.7,707.29 C 234.71,707.31 234.83,707.78 234.89,708.03 C 234.96,708.33 235.04,708.63 235.11,708.93 C 235.17,709.15 235.23,709.36 235.28,709.59 C 235.32,709.76 235.4,710.05 235.41,710.09 C 235.56,710.4 236.09,711.31 237.03,711.31 C 237.48,711.31 237.57,710.94 237.57,710.61 C 237.57,709.99 237.08,708.72 236.92,708.29 C 236.83,708.06 236.82,707.94 236.82,707.83 C 236.82,707.36 237.17,707.01 237.64,707.01 C 238.58,707.01 238.95,708.47 238.95,708.55 C 238.95,708.65 238.86,708.65 238.83,708.65 C 238.73,708.65 238.73,708.62 238.68,708.47 C 238.48,707.79 238.15,707.23 237.66,707.23 C 237.49,707.23 237.42,707.33 237.42,707.56 C 237.42,707.81 237.51,708.05 237.6,708.27 C 237.79,708.8 238.21,709.89 238.21,710.46 C 238.21,711.13 237.78,711.53 237.06,711.53 C 236.17,711.53 235.68,710.89 235.51,710.66 C 235.46,711.22 235.05,711.53 234.59,711.53 C 234.13,711.53 233.95,711.14 233.85,710.96 C 233.69,710.62 233.55,710.03 233.55,709.99 C 233.55,709.89 233.65,709.89 233.67,709.89 C 233.77,709.89 233.78,709.9 233.84,710.12 C 234.01,710.83 234.2,711.31 234.56,711.31 C 234.76,711.31 234.87,711.18 234.87,710.85 C 234.87,710.64 234.84,710.53 234.71,710.01 L 234.13,707.71 z"
   id="path6084" />
<path
   style="fill:#000000;stroke-width:0"
   d="M 242.11,709.61 L 242.11,709.69 L 242.11,709.76 L 242.11,709.84 L 242.11,709.92 L 242.1,710.09 L 242.09,710.27 L 242.07,710.45 L 242.05,710.64 L 242.02,710.84 L 241.99,711.04 L 241.95,711.24 L 241.91,711.45 L 241.85,711.66 L 241.79,711.87 L 241.72,712.08 L 241.64,712.3 L 241.6,712.4 L 241.55,712.51 L 241.51,712.62 L 241.46,712.72 C 240.86,713.95 240,714.59 239.9,714.59 C 239.84,714.59 239.8,714.55 239.8,714.49 C 239.8,714.47 239.8,714.45 239.99,714.27 C 240.97,713.28 241.54,711.7 241.54,709.61 C 241.54,707.91 241.17,706.16 239.93,704.9 C 239.8,704.78 239.8,704.76 239.8,704.73 C 239.8,704.67 239.84,704.63 239.9,704.63 C 240,704.63 240.9,705.31 241.49,706.58 C 241.99,707.67 242.11,708.78 242.11,709.61 z"
   id="path6086" />
</g>      <g
         style="font-style:normal;font-variant:normal;font-weight:normal;font-stretch:normal;letter-spacing:normal;word-spacing:normal;text-anchor:start;fill:none;fill-opacity:1;stroke:#000000;stroke-linecap:butt;stroke-linejoin:miter;stroke-miterlimit:10.43299961;stroke-dasharray:none;stroke-dashoffset:0;stroke-opacity:1"
         ns0:preamble=""
         ns0:text="$c_2 g(n)$"
         word-spacing="normal"
         letter-spacing="normal"
         font-size-adjust="none"
         font-stretch="normal"
         font-weight="normal"
         font-variant="normal"
         font-style="normal"
         fill-rule="even-odd"
         stroke-miterlimit="10.433"
         xml:space="preserve"
         transform="matrix(2.6755493,0,0,-2.6755493,-101.1763,1975.4834)"
         id="g6134">
<path
   style="fill:#000000;stroke-width:0"
   id="path6136"
   d="M 227.38,710.91 L 227.35,710.91 L 227.32,710.91 L 227.29,710.91 L 227.26,710.91 L 227.23,710.9 L 227.21,710.9 L 227.19,710.9 L 227.18,710.9 L 227.16,710.89 L 227.15,710.89 L 227.14,710.89 L 227.12,710.88 L 227.11,710.88 L 227.1,710.87 L 227.08,710.87 L 227.07,710.86 L 227.06,710.86 L 227.04,710.85 L 227.03,710.84 L 227.02,710.83 L 227,710.82 L 226.99,710.81 L 226.98,710.8 L 226.97,710.79 L 226.95,710.78 L 226.94,710.77 C 226.78,710.62 226.76,710.45 226.76,710.38 C 226.76,710.14 226.94,710.03 227.13,710.03 C 227.42,710.03 227.69,710.27 227.69,710.67 C 227.69,711.16 227.22,711.53 226.51,711.53 C 225.17,711.53 223.84,710.1 223.84,708.7 C 223.84,707.8 224.42,707.01 225.46,707.01 C 226.88,707.01 227.72,708.07 227.72,708.19 C 227.72,708.25 227.66,708.32 227.6,708.32 C 227.55,708.32 227.53,708.3 227.47,708.22 C 226.68,707.23 225.59,707.23 225.48,707.23 C 224.85,707.23 224.58,707.72 224.58,708.32 C 224.58,708.73 224.78,709.69 225.12,710.31 C 225.43,710.88 225.97,711.31 226.52,711.31 C 226.86,711.31 227.24,711.18 227.38,710.91 z" />
<path
   style="fill:#000000;stroke-width:0"
   id="path6138"
   d="M 231.27,706.9 L 231.03,706.9 C 231.01,706.75 230.94,706.33 230.85,706.27 C 230.79,706.22 230.26,706.22 230.16,706.22 L 228.88,706.22 C 229.61,706.87 229.85,707.07 230.27,707.39 C 230.79,707.81 231.27,708.24 231.27,708.9 C 231.27,709.74 230.53,710.26 229.63,710.26 C 228.77,710.26 228.18,709.65 228.18,709.01 C 228.18,708.66 228.48,708.62 228.55,708.62 C 228.72,708.62 228.92,708.74 228.92,708.99 C 228.92,709.12 228.88,709.36 228.51,709.36 C 228.73,709.86 229.2,710.01 229.53,710.01 C 230.23,710.01 230.59,709.47 230.59,708.9 C 230.59,708.29 230.16,707.81 229.93,707.56 L 228.25,705.9 C 228.18,705.84 228.18,705.83 228.18,705.63 L 231.06,705.63 L 231.27,706.9 z" />
<path
   style="fill:#000000;stroke-width:0"
   id="path6140"
   d="M 236.91,710.88 L 236.91,710.89 L 236.91,710.9 L 236.91,710.91 L 236.92,710.92 L 236.92,710.94 L 236.92,710.95 L 236.93,710.96 L 236.93,710.98 L 236.93,710.99 L 236.93,711 L 236.93,711.01 L 236.94,711.02 L 236.94,711.03 L 236.94,711.04 L 236.94,711.05 L 236.94,711.05 L 236.94,711.06 C 236.94,711.23 236.82,711.33 236.65,711.33 C 236.55,711.33 236.28,711.26 236.24,710.9 C 236.06,711.27 235.71,711.53 235.31,711.53 L 235.32,711.31 C 235.98,711.31 236.12,710.5 236.12,710.45 C 236.12,710.4 236.1,710.34 236.09,710.3 L 235.61,708.4 C 235.55,708.14 235.32,707.89 235.1,707.7 C 234.9,707.52 234.59,707.34 234.3,707.34 C 233.8,707.34 233.65,707.86 233.65,708.26 C 233.65,708.74 233.94,709.91 234.21,710.42 C 234.48,710.91 234.9,711.31 235.32,711.31 L 235.31,711.53 C 234.18,711.53 232.94,710.13 232.94,708.7 C 232.94,707.71 233.55,707.12 234.27,707.12 C 234.85,707.12 235.32,707.59 235.42,707.7 L 235.43,707.69 C 235.22,706.8 235.1,706.4 235.1,706.38 C 235.06,706.29 234.73,705.3 233.67,705.3 C 233.48,705.3 233.15,705.31 232.87,705.4 C 233.17,705.49 233.28,705.75 233.28,705.92 C 233.28,706.08 233.17,706.27 232.9,706.27 C 232.68,706.27 232.36,706.09 232.36,705.69 C 232.36,705.28 232.73,705.08 233.69,705.08 C 234.93,705.08 235.65,705.86 235.8,706.46 L 236.91,710.88 z" />
<path
   style="fill:#000000;stroke-width:0"
   id="path6142"
   d="M 240.62,704.73 L 240.62,704.74 L 240.62,704.74 L 240.62,704.75 L 240.62,704.75 L 240.62,704.75 L 240.62,704.75 L 240.62,704.76 L 240.61,704.76 L 240.61,704.77 L 240.61,704.77 L 240.61,704.77 L 240.61,704.78 L 240.6,704.78 L 240.6,704.79 L 240.59,704.79 L 240.59,704.8 L 240.58,704.81 L 240.58,704.81 L 240.58,704.82 L 240.57,704.82 L 240.57,704.83 L 240.57,704.83 L 240.56,704.84 L 240.56,704.84 L 240.55,704.84 L 240.55,704.85 L 240.54,704.85 L 240.54,704.86 L 240.53,704.86 L 240.53,704.87 L 240.52,704.88 L 240.52,704.88 L 240.51,704.89 L 240.51,704.89 L 240.5,704.9 L 240.49,704.91 L 240.49,704.91 L 240.48,704.92 L 240.47,704.93 L 240.47,704.94 L 240.46,704.94 L 240.45,704.95 C 239.21,706.21 238.89,708.09 238.89,709.61 C 238.89,711.35 239.26,713.08 240.49,714.33 C 240.62,714.45 240.62,714.47 240.62,714.49 C 240.62,714.57 240.58,714.59 240.52,714.59 C 240.42,714.59 239.52,713.92 238.94,712.65 C 238.43,711.56 238.31,710.45 238.31,709.61 C 238.31,708.84 238.42,707.63 238.97,706.51 C 239.56,705.28 240.42,704.63 240.52,704.63 C 240.58,704.63 240.62,704.66 240.62,704.73 z" />
<path
   style="fill:#000000;stroke-width:0"
   id="path6144"
   d="M 242.08,707.71 L 242.07,707.7 L 242.07,707.68 L 242.07,707.67 L 242.06,707.65 L 242.06,707.62 L 242.05,707.59 L 242.04,707.55 L 242.04,707.52 L 242.03,707.49 L 242.02,707.46 L 242.02,707.44 L 242.01,707.43 L 242.01,707.41 L 242.01,707.4 L 242,707.39 L 242,707.37 L 242,707.36 L 242,707.35 L 241.99,707.34 L 241.99,707.33 L 241.99,707.32 L 241.99,707.31 L 241.99,707.3 L 241.99,707.29 L 241.99,707.29 L 241.99,707.28 C 241.99,707.1 242.13,707.01 242.28,707.01 C 242.4,707.01 242.57,707.09 242.65,707.29 C 242.65,707.31 242.77,707.78 242.83,708.03 C 242.9,708.33 242.98,708.63 243.05,708.93 C 243.11,709.15 243.17,709.36 243.22,709.59 C 243.26,709.76 243.34,710.05 243.35,710.09 C 243.5,710.4 244.03,711.31 244.98,711.31 C 245.42,711.31 245.51,710.94 245.51,710.61 C 245.51,709.99 245.03,708.72 244.87,708.29 C 244.78,708.06 244.77,707.94 244.77,707.83 C 244.77,707.36 245.12,707.01 245.58,707.01 C 246.52,707.01 246.89,708.47 246.89,708.55 C 246.89,708.65 246.8,708.65 246.77,708.65 C 246.67,708.65 246.67,708.62 246.62,708.47 C 246.42,707.79 246.09,707.23 245.6,707.23 C 245.43,707.23 245.36,707.33 245.36,707.56 C 245.36,707.81 245.45,708.05 245.54,708.27 C 245.73,708.8 246.15,709.89 246.15,710.46 C 246.15,711.13 245.72,711.53 245.01,711.53 C 244.11,711.53 243.62,710.89 243.45,710.66 C 243.4,711.22 242.99,711.53 242.54,711.53 C 242.08,711.53 241.89,711.14 241.79,710.96 C 241.63,710.62 241.49,710.03 241.49,709.99 C 241.49,709.89 241.59,709.89 241.61,709.89 C 241.71,709.89 241.72,709.9 241.78,710.12 C 241.95,710.83 242.15,711.31 242.51,711.31 C 242.7,711.31 242.81,711.18 242.81,710.85 C 242.81,710.64 242.78,710.53 242.65,710.01 L 242.08,707.71 z" />
<path
   style="fill:#000000;stroke-width:0"
   id="path6146"
   d="M 250.06,709.61 L 250.06,709.69 L 250.06,709.76 L 250.05,709.84 L 250.05,709.92 L 250.04,710.09 L 250.03,710.27 L 250.01,710.45 L 249.99,710.64 L 249.97,710.84 L 249.93,711.04 L 249.89,711.24 L 249.85,711.45 L 249.79,711.66 L 249.73,711.87 L 249.66,712.08 L 249.58,712.3 L 249.54,712.4 L 249.5,712.51 L 249.45,712.62 L 249.4,712.72 C 248.8,713.95 247.95,714.59 247.85,714.59 C 247.79,714.59 247.74,714.55 247.74,714.49 C 247.74,714.47 247.74,714.45 247.93,714.27 C 248.91,713.28 249.48,711.7 249.48,709.61 C 249.48,707.91 249.11,706.16 247.88,704.9 C 247.74,704.78 247.74,704.76 247.74,704.73 C 247.74,704.67 247.79,704.63 247.85,704.63 C 247.95,704.63 248.84,705.31 249.43,706.58 C 249.94,707.67 250.06,708.78 250.06,709.61 z" />
</g>      <g
         id="g6212"
         transform="matrix(2.6755493,0,0,-2.6755493,-98.736031,2098.858)"
         xml:space="preserve"
         stroke-miterlimit="10.433"
         fill-rule="even-odd"
         font-style="normal"
         font-variant="normal"
         font-weight="normal"
         font-stretch="normal"
         font-size-adjust="none"
         letter-spacing="normal"
         word-spacing="normal"
         ns0:text="$c_1 g(n)$"
         ns0:preamble=""
         style="font-style:normal;font-variant:normal;font-weight:normal;font-stretch:normal;letter-spacing:normal;word-spacing:normal;text-anchor:start;fill:none;fill-opacity:1;stroke:#000000;stroke-linecap:butt;stroke-linejoin:miter;stroke-miterlimit:10.43299961;stroke-dasharray:none;stroke-dashoffset:0;stroke-opacity:1">
<path
   style="fill:#000000;stroke-width:0"
   d="M 227.38,710.91 L 227.35,710.91 L 227.32,710.91 L 227.29,710.91 L 227.26,710.91 L 227.23,710.9 L 227.21,710.9 L 227.19,710.9 L 227.18,710.9 L 227.16,710.89 L 227.15,710.89 L 227.14,710.89 L 227.12,710.88 L 227.11,710.88 L 227.1,710.87 L 227.08,710.87 L 227.07,710.86 L 227.06,710.86 L 227.04,710.85 L 227.03,710.84 L 227.02,710.83 L 227,710.82 L 226.99,710.81 L 226.98,710.8 L 226.97,710.79 L 226.95,710.78 L 226.94,710.77 C 226.78,710.62 226.76,710.45 226.76,710.38 C 226.76,710.14 226.94,710.03 227.13,710.03 C 227.42,710.03 227.69,710.27 227.69,710.67 C 227.69,711.16 227.22,711.53 226.51,711.53 C 225.17,711.53 223.84,710.1 223.84,708.7 C 223.84,707.8 224.42,707.01 225.46,707.01 C 226.88,707.01 227.72,708.07 227.72,708.19 C 227.72,708.25 227.66,708.32 227.6,708.32 C 227.55,708.32 227.53,708.3 227.47,708.22 C 226.68,707.23 225.59,707.23 225.48,707.23 C 224.85,707.23 224.58,707.72 224.58,708.32 C 224.58,708.73 224.78,709.69 225.12,710.31 C 225.43,710.88 225.97,711.31 226.52,711.31 C 226.86,711.31 227.24,711.18 227.38,710.91 z"
   id="path6214" />
<path
   style="fill:#000000;stroke-width:0"
   d="M 230.08,710.07 L 230.08,710.07 L 230.08,710.08 L 230.08,710.09 L 230.08,710.1 L 230.08,710.11 L 230.08,710.11 L 230.08,710.12 L 230.08,710.13 L 230.08,710.13 L 230.08,710.14 L 230.08,710.15 L 230.08,710.15 L 230.08,710.16 L 230.08,710.16 L 230.08,710.17 L 230.08,710.18 L 230.07,710.18 L 230.07,710.19 L 230.07,710.19 L 230.07,710.2 L 230.07,710.21 L 230.06,710.22 L 230.06,710.22 L 230.05,710.23 L 230.05,710.23 L 230.04,710.24 L 230.04,710.24 L 230.03,710.25 L 230.02,710.25 L 230.02,710.25 L 230.01,710.25 L 230,710.26 L 229.99,710.26 L 229.99,710.26 L 229.98,710.26 L 229.98,710.26 L 229.97,710.26 L 229.96,710.26 L 229.96,710.26 L 229.95,710.26 L 229.94,710.26 L 229.94,710.26 L 229.93,710.26 L 229.92,710.26 L 229.91,710.26 L 229.91,710.26 L 229.9,710.26 L 229.89,710.26 L 229.88,710.26 L 229.87,710.26 C 229.43,709.82 228.79,709.81 228.51,709.81 L 228.51,709.56 C 228.67,709.56 229.13,709.56 229.52,709.76 L 229.52,706.2 C 229.52,705.97 229.52,705.88 228.82,705.88 L 228.55,705.88 L 228.55,705.63 C 228.68,705.64 229.54,705.66 229.79,705.66 C 230.01,705.66 230.89,705.64 231.04,705.63 L 231.04,705.88 L 230.78,705.88 C 230.08,705.88 230.08,705.97 230.08,706.2 L 230.08,710.07 z"
   id="path6216" />
<path
   style="fill:#000000;stroke-width:0"
   d="M 236.91,710.88 L 236.91,710.89 L 236.91,710.9 L 236.91,710.91 L 236.92,710.92 L 236.92,710.94 L 236.92,710.95 L 236.93,710.96 L 236.93,710.98 L 236.93,710.99 L 236.93,711 L 236.93,711.01 L 236.94,711.02 L 236.94,711.03 L 236.94,711.04 L 236.94,711.05 L 236.94,711.05 L 236.94,711.06 C 236.94,711.23 236.82,711.33 236.65,711.33 C 236.55,711.33 236.28,711.26 236.24,710.9 C 236.06,711.27 235.71,711.53 235.31,711.53 L 235.32,711.31 C 235.98,711.31 236.12,710.5 236.12,710.45 C 236.12,710.4 236.1,710.34 236.09,710.3 L 235.61,708.4 C 235.55,708.14 235.32,707.89 235.1,707.7 C 234.9,707.52 234.59,707.34 234.3,707.34 C 233.8,707.34 233.65,707.86 233.65,708.26 C 233.65,708.74 233.94,709.91 234.21,710.42 C 234.48,710.91 234.9,711.31 235.32,711.31 L 235.31,711.53 C 234.18,711.53 232.94,710.13 232.94,708.7 C 232.94,707.71 233.55,707.12 234.27,707.12 C 234.85,707.12 235.32,707.59 235.42,707.7 L 235.43,707.69 C 235.22,706.8 235.1,706.4 235.1,706.38 C 235.06,706.29 234.73,705.3 233.67,705.3 C 233.48,705.3 233.15,705.31 232.87,705.4 C 233.17,705.49 233.28,705.75 233.28,705.92 C 233.28,706.08 233.17,706.27 232.9,706.27 C 232.68,706.27 232.36,706.09 232.36,705.69 C 232.36,705.28 232.73,705.08 233.69,705.08 C 234.93,705.08 235.65,705.86 235.8,706.46 L 236.91,710.88 z"
   id="path6218" />
<path
   style="fill:#000000;stroke-width:0"
   d="M 240.62,704.73 L 240.62,704.74 L 240.62,704.74 L 240.62,704.75 L 240.62,704.75 L 240.62,704.75 L 240.62,704.75 L 240.62,704.76 L 240.61,704.76 L 240.61,704.77 L 240.61,704.77 L 240.61,704.77 L 240.61,704.78 L 240.6,704.78 L 240.6,704.79 L 240.59,704.79 L 240.59,704.8 L 240.58,704.81 L 240.58,704.81 L 240.58,704.82 L 240.57,704.82 L 240.57,704.83 L 240.57,704.83 L 240.56,704.84 L 240.56,704.84 L 240.55,704.84 L 240.55,704.85 L 240.54,704.85 L 240.54,704.86 L 240.53,704.86 L 240.53,704.87 L 240.52,704.88 L 240.52,704.88 L 240.51,704.89 L 240.51,704.89 L 240.5,704.9 L 240.49,704.91 L 240.49,704.91 L 240.48,704.92 L 240.47,704.93 L 240.47,704.94 L 240.46,704.94 L 240.45,704.95 C 239.21,706.21 238.89,708.09 238.89,709.61 C 238.89,711.35 239.26,713.08 240.49,714.33 C 240.62,714.45 240.62,714.47 240.62,714.49 C 240.62,714.57 240.58,714.59 240.52,714.59 C 240.42,714.59 239.52,713.92 238.94,712.65 C 238.43,711.56 238.31,710.45 238.31,709.61 C 238.31,708.84 238.42,707.63 238.97,706.51 C 239.56,705.28 240.42,704.63 240.52,704.63 C 240.58,704.63 240.62,704.66 240.62,704.73 z"
   id="path6220" />
<path
   style="fill:#000000;stroke-width:0"
   d="M 242.08,707.71 L 242.07,707.7 L 242.07,707.68 L 242.07,707.67 L 242.06,707.65 L 242.06,707.62 L 242.05,707.59 L 242.04,707.55 L 242.04,707.52 L 242.03,707.49 L 242.02,707.46 L 242.02,707.44 L 242.01,707.43 L 242.01,707.41 L 242.01,707.4 L 242,707.39 L 242,707.37 L 242,707.36 L 242,707.35 L 241.99,707.34 L 241.99,707.33 L 241.99,707.32 L 241.99,707.31 L 241.99,707.3 L 241.99,707.29 L 241.99,707.29 L 241.99,707.28 C 241.99,707.1 242.13,707.01 242.28,707.01 C 242.4,707.01 242.57,707.09 242.65,707.29 C 242.65,707.31 242.77,707.78 242.83,708.03 C 242.9,708.33 242.98,708.63 243.05,708.93 C 243.11,709.15 243.17,709.36 243.22,709.59 C 243.26,709.76 243.34,710.05 243.35,710.09 C 243.5,710.4 244.03,711.31 244.98,711.31 C 245.42,711.31 245.51,710.94 245.51,710.61 C 245.51,709.99 245.03,708.72 244.87,708.29 C 244.78,708.06 244.77,707.94 244.77,707.83 C 244.77,707.36 245.12,707.01 245.58,707.01 C 246.52,707.01 246.89,708.47 246.89,708.55 C 246.89,708.65 246.8,708.65 246.77,708.65 C 246.67,708.65 246.67,708.62 246.62,708.47 C 246.42,707.79 246.09,707.23 245.6,707.23 C 245.43,707.23 245.36,707.33 245.36,707.56 C 245.36,707.81 245.45,708.05 245.54,708.27 C 245.73,708.8 246.15,709.89 246.15,710.46 C 246.15,711.13 245.72,711.53 245.01,711.53 C 244.11,711.53 243.62,710.89 243.45,710.66 C 243.4,711.22 242.99,711.53 242.54,711.53 C 242.08,711.53 241.89,711.14 241.79,710.96 C 241.63,710.62 241.49,710.03 241.49,709.99 C 241.49,709.89 241.59,709.89 241.61,709.89 C 241.71,709.89 241.72,709.9 241.78,710.12 C 241.95,710.83 242.15,711.31 242.51,711.31 C 242.7,711.31 242.81,711.18 242.81,710.85 C 242.81,710.64 242.78,710.53 242.65,710.01 L 242.08,707.71 z"
   id="path6222" />
<path
   style="fill:#000000;stroke-width:0"
   d="M 250.06,709.61 L 250.06,709.69 L 250.06,709.76 L 250.05,709.84 L 250.05,709.92 L 250.04,710.09 L 250.03,710.27 L 250.01,710.45 L 249.99,710.64 L 249.97,710.84 L 249.93,711.04 L 249.89,711.24 L 249.85,711.45 L 249.79,711.66 L 249.73,711.87 L 249.66,712.08 L 249.58,712.3 L 249.54,712.4 L 249.5,712.51 L 249.45,712.62 L 249.4,712.72 C 248.8,713.95 247.95,714.59 247.85,714.59 C 247.79,714.59 247.74,714.55 247.74,714.49 C 247.74,714.47 247.74,714.45 247.93,714.27 C 248.91,713.28 249.48,711.7 249.48,709.61 C 249.48,707.91 249.11,706.16 247.88,704.9 C 247.74,704.78 247.74,704.76 247.74,704.73 C 247.74,704.67 247.79,704.63 247.85,704.63 C 247.95,704.63 248.84,705.31 249.43,706.58 C 249.94,707.67 250.06,708.78 250.06,709.61 z"
   id="path6224" />
</g>      <path
         sodipodi:nodetypes="cc"
         id="path6257"
         d="M 232.85714,75.933609 L 232.85714,335.21932"
         style="fill:none;fill-rule:evenodd;stroke:#000000;stroke-width:1;stroke-linecap:butt;stroke-linejoin:miter;stroke-miterlimit:4;stroke-dasharray:1, 3;stroke-dashoffset:0;stroke-opacity:1" />
      <g
         style="font-style:normal;font-variant:normal;font-weight:normal;font-stretch:normal;letter-spacing:normal;word-spacing:normal;text-anchor:start;fill:none;fill-opacity:1;stroke:#000000;stroke-linecap:butt;stroke-linejoin:miter;stroke-miterlimit:10.43299961;stroke-dasharray:none;stroke-dashoffset:0;stroke-opacity:1"
         ns0:preamble=""
         ns0:text="$n_0$"
         word-spacing="normal"
         letter-spacing="normal"
         font-size-adjust="none"
         font-stretch="normal"
         font-weight="normal"
         font-variant="normal"
         font-style="normal"
         fill-rule="even-odd"
         stroke-miterlimit="10.433"
         xml:space="preserve"
         transform="matrix(2.6755493,0,0,-2.6755493,-377.30746,2249.5723)"
         id="g6307">
<path
   id="path6309"
   d="M 224.31,707.71 L 224.31,707.7 L 224.3,707.68 L 224.3,707.67 L 224.3,707.65 L 224.29,707.62 L 224.28,707.59 L 224.28,707.55 L 224.27,707.52 L 224.26,707.49 L 224.25,707.46 L 224.25,707.44 L 224.25,707.43 L 224.24,707.41 L 224.24,707.4 L 224.24,707.39 L 224.23,707.37 L 224.23,707.36 L 224.23,707.35 L 224.23,707.34 L 224.23,707.33 L 224.22,707.32 L 224.22,707.31 L 224.22,707.3 L 224.22,707.29 L 224.22,707.29 L 224.22,707.28 C 224.22,707.1 224.36,707.01 224.51,707.01 C 224.63,707.01 224.81,707.09 224.88,707.29 C 224.89,707.31 225.01,707.78 225.07,708.03 C 225.14,708.33 225.22,708.63 225.29,708.93 C 225.35,709.15 225.4,709.36 225.46,709.59 C 225.49,709.76 225.57,710.05 225.58,710.09 C 225.73,710.4 226.26,711.31 227.21,711.31 C 227.66,711.31 227.75,710.94 227.75,710.61 C 227.75,709.99 227.26,708.72 227.1,708.29 C 227.01,708.06 227,707.94 227,707.83 C 227,707.36 227.35,707.01 227.82,707.01 C 228.75,707.01 229.12,708.47 229.12,708.55 C 229.12,708.65 229.03,708.65 229,708.65 C 228.9,708.65 228.9,708.62 228.85,708.47 C 228.65,707.79 228.32,707.23 227.84,707.23 C 227.67,707.23 227.6,707.33 227.6,707.56 C 227.6,707.81 227.69,708.05 227.78,708.27 C 227.96,708.8 228.38,709.89 228.38,710.46 C 228.38,711.13 227.96,711.53 227.24,711.53 C 226.34,711.53 225.85,710.89 225.68,710.66 C 225.63,711.22 225.23,711.53 224.77,711.53 C 224.31,711.53 224.12,711.14 224.02,710.96 C 223.86,710.62 223.72,710.03 223.72,709.99 C 223.72,709.89 223.82,709.89 223.84,709.89 C 223.94,709.89 223.95,709.9 224.01,710.12 C 224.18,710.83 224.38,711.31 224.74,711.31 C 224.94,711.31 225.05,711.18 225.05,710.85 C 225.05,710.64 225.02,710.53 224.89,710.01 L 224.31,707.71 z"
   style="fill:#000000;stroke-width:0" />
<path
   id="path6311"
   d="M 233.01,707.85 L 233.01,708 L 233,708.13 L 233,708.26 L 232.99,708.39 L 232.98,708.52 L 232.96,708.63 L 232.94,708.75 L 232.92,708.86 L 232.9,708.97 L 232.87,709.08 L 232.83,709.18 L 232.8,709.28 L 232.75,709.38 L 232.71,709.47 L 232.65,709.57 L 232.63,709.62 L 232.6,709.66 C 232.38,709.98 231.95,710.26 231.39,710.26 C 229.77,710.26 229.77,708.36 229.77,707.85 C 229.77,707.35 229.77,705.49 231.39,705.49 L 231.39,705.69 C 231.07,705.69 230.64,705.87 230.51,706.45 C 230.41,706.86 230.41,707.43 230.41,707.95 C 230.41,708.45 230.41,708.98 230.51,709.37 C 230.66,709.92 231.1,710.07 231.39,710.07 C 231.77,710.07 232.13,709.84 232.26,709.43 C 232.37,709.05 232.37,708.55 232.37,707.95 C 232.37,707.43 232.37,706.91 232.28,706.47 C 232.14,705.84 231.67,705.69 231.39,705.69 L 231.39,705.69 L 231.39,705.49 C 233.01,705.49 233.01,707.35 233.01,707.85 z"
   style="fill:#000000;stroke-width:0" />
</g>      <g
         id="g6391"
         transform="matrix(2.6755493,0,0,-2.6755493,-43.021743,2232.4294)"
         xml:space="preserve"
         stroke-miterlimit="10.433"
         fill-rule="even-odd"
         font-style="normal"
         font-variant="normal"
         font-weight="normal"
         font-stretch="normal"
         font-size-adjust="none"
         letter-spacing="normal"
         word-spacing="normal"
         ns0:text="$n$"
         ns0:preamble=""
         style="font-style:normal;font-variant:normal;font-weight:normal;font-stretch:normal;letter-spacing:normal;word-spacing:normal;text-anchor:start;fill:none;fill-opacity:1;stroke:#000000;stroke-linecap:butt;stroke-linejoin:miter;stroke-miterlimit:10.43299961;stroke-dasharray:none;stroke-dashoffset:0;stroke-opacity:1">
<path
   style="fill:#000000;stroke-width:0"
   d="M 224.31,707.71 L 224.31,707.7 L 224.3,707.68 L 224.3,707.67 L 224.3,707.65 L 224.29,707.62 L 224.28,707.59 L 224.28,707.55 L 224.27,707.52 L 224.26,707.49 L 224.25,707.46 L 224.25,707.44 L 224.25,707.43 L 224.24,707.41 L 224.24,707.4 L 224.24,707.39 L 224.23,707.37 L 224.23,707.36 L 224.23,707.35 L 224.23,707.34 L 224.23,707.33 L 224.22,707.32 L 224.22,707.31 L 224.22,707.3 L 224.22,707.29 L 224.22,707.29 L 224.22,707.28 C 224.22,707.1 224.36,707.01 224.51,707.01 C 224.63,707.01 224.81,707.09 224.88,707.29 C 224.89,707.31 225.01,707.78 225.07,708.03 C 225.14,708.33 225.22,708.63 225.29,708.93 C 225.35,709.15 225.4,709.36 225.46,709.59 C 225.49,709.76 225.57,710.05 225.58,710.09 C 225.73,710.4 226.26,711.31 227.21,711.31 C 227.66,711.31 227.75,710.94 227.75,710.61 C 227.75,709.99 227.26,708.72 227.1,708.29 C 227.01,708.06 227,707.94 227,707.83 C 227,707.36 227.35,707.01 227.82,707.01 C 228.75,707.01 229.12,708.47 229.12,708.55 C 229.12,708.65 229.03,708.65 229,708.65 C 228.9,708.65 228.9,708.62 228.85,708.47 C 228.65,707.79 228.32,707.23 227.84,707.23 C 227.67,707.23 227.6,707.33 227.6,707.56 C 227.6,707.81 227.69,708.05 227.78,708.27 C 227.96,708.8 228.38,709.89 228.38,710.46 C 228.38,711.13 227.96,711.53 227.24,711.53 C 226.34,711.53 225.85,710.89 225.68,710.66 C 225.63,711.22 225.23,711.53 224.77,711.53 C 224.31,711.53 224.12,711.14 224.02,710.96 C 223.86,710.62 223.72,710.03 223.72,709.99 C 223.72,709.89 223.82,709.89 223.84,709.89 C 223.94,709.89 223.95,709.9 224.01,710.12 C 224.18,710.83 224.38,711.31 224.74,711.31 C 224.94,711.31 225.05,711.18 225.05,710.85 C 225.05,710.64 225.02,710.53 224.89,710.01 L 224.31,707.71 z"
   id="path6393" />
</g>    </g>
  </g>
</svg>
